<?xml version="1.0" standalone="no"?><!DOCTYPE svg PUBLIC "-//W3C//DTD SVG 1.1//EN" "http://www.w3.org/Graphics/SVG/1.1/DTD/svg11.dtd"><svg t="1633597504551" class="icon" viewBox="0 0 1024 1024" version="1.1" xmlns="http://www.w3.org/2000/svg" p-id="2462" xmlns:xlink="http://www.w3.org/1999/xlink" width="200" height="200"><defs><style type="text/css"></style></defs><path d="M128 448h768V384a64 64 0 0 0-64-64H192a64 64 0 0 0-64 64z m0 64v320a64 64 0 0 0 64 64h640a64 64 0 0 0 64-64V512z m64-256h640a128 128 0 0 1 128 128v448a128 128 0 0 1-128 128H192a128 128 0 0 1-128-128V384a128 128 0 0 1 128-128z m192-64v64h256V192z m0-64h256a64 64 0 0 1 64 64v64a64 64 0 0 1-64 64H384a64 64 0 0 1-64-64V192a64 64 0 0 1 64-64z" p-id="2463"></path></svg>