<?xml version="1.0" standalone="no"?><!DOCTYPE svg PUBLIC "-//W3C//DTD SVG 1.1//EN" "http://www.w3.org/Graphics/SVG/1.1/DTD/svg11.dtd"><svg t="1633110194432" class="icon" viewBox="0 0 1024 1024" version="1.1" xmlns="http://www.w3.org/2000/svg" p-id="16127" xmlns:xlink="http://www.w3.org/1999/xlink" width="200" height="200"><defs><style type="text/css"></style></defs><path d="M921.127009 737.636593c-13.051745 199.863096-132.470413 286.22941-354.987066 286.22941l-31.147392-0.184997c-4.660909 0-8.750829 0.052999-12.201762 0.234996l-1.954962 0.052999c-2.705947 0-5.920884-0.314994-9.447815-1.218977a38.281252 38.281252 0 0 1-9.460815 1.218977c-5.406894-0.234995-9.514814-0.287994-14.157724-0.287995l-31.160391 0.184997c-222.506654 0-341.922322-86.366313-354.925068-284.751439-3.319935-331.847519 198.782118-476.639691 280.205527-521.448815C323.56768 108.186887 234.598418 0 234.598418 0H786.674635s-87.315295 107.842894-145.802152 217.665749c81.42241 44.783125 283.549462 189.4423 280.254526 519.970844zM594.638386 253.648046l-24.06953-11.028785 11.017785-24.211527c24.172528-53.066964 69.298647-130.431453 99.803051-172.176637H341.372333c30.504404 41.745185 75.630523 119.109674 99.80305 172.176637l11.017785 24.211527-24.08253 11.028785c-46.299096 21.177586-277.128587 144.074186-273.758653 483.472557 14.416718 219.539712 169.116697 233.655436 302.257097 233.655437l31.160391-0.181997c3.215937 0 6.214879 0.023 8.969825 0.102998h29.243429c2.780946-0.079998 5.791887-0.102998 9.009824-0.102998l31.147392 0.181997c133.166399 0 287.850378-14.115724 302.319095-235.136408C871.780973 397.722232 640.947481 274.825632 594.638386 253.648046z m-29.725419 326.614621c113.100791 31.540384 115.421746 96.372118 115.421745 135.504353 0 33.29335-25.5805 114.476764-141.002246 122.067616v49.64903h-48.221058v-49.64903c-85.839323-6.421875-125.720545-53.731951-134.421375-145.42816h82.361392c-0.578989 43.220156 16.679674 70.084631 52.059983 77.096495V647.431355c-4.058921-1.751966-1.01898-3.506932-8.558833-5.258897-58.001867-15.769692-116.002734-38.546247-116.002734-116.22873 0-80.014437 54.961927-120.901639 124.561567-124.992559v-44.972122h48.221058v44.972122c69.020652 7.594852 121.86162 43.809144 126.501529 124.40657h-82.360391c-0.580989-30.955395-18.040648-56.067905-44.141138-56.067905v103.380981c9.279819 2.334954 15.139704 4.669909 25.580501 7.591852z m-25.580501 189.240304c28.419445-2.920943 58.639855-19.859612 58.639855-57.239882 0-30.958395-12.81975-42.054179-58.639855-54.901928v112.14181z m-48.221058-300.213137c-26.10049 0-42.200176 16.351681-42.200176 48.476053 0 25.702498 5.079901 37.967258 42.200176 46.727088v-95.203141z" p-id="16128"></path></svg>