<?xml version="1.0" standalone="no"?><!DOCTYPE svg PUBLIC "-//W3C//DTD SVG 1.1//EN" "http://www.w3.org/Graphics/SVG/1.1/DTD/svg11.dtd"><svg t="1633597783436" class="icon" viewBox="0 0 1024 1024" version="1.1" xmlns="http://www.w3.org/2000/svg" p-id="9448" xmlns:xlink="http://www.w3.org/1999/xlink" width="200" height="200"><defs><style type="text/css"></style></defs><path d="M676.750222 1014.215111c-21.333333 0-45.169778-2.446222-70.428444-5.12-60.245333-6.200889-128.512-6.200889-188.700444 0-25.258667 2.673778-49.095111 5.12-70.428444 5.12-22.698667 0-55.580444-2.446222-79.132444-23.836444-20.878222-18.944-31.004444-49.038222-31.004444-91.989333L237.056 391.111111l549.944889 0 0 507.278222C787.000889 1002.211556 724.138667 1014.215111 676.750222 1014.215111zM512 960.056889c35.328 0 69.006222 3.527111 98.816 6.599111 24.234667 2.56 46.421333 4.892444 65.991111 4.892444 45.795556 0 67.584-10.922667 67.584-73.159111L744.391111 433.777778 279.722667 433.777778l0 464.611556c0 30.264889 5.575111 50.005333 17.009778 60.416 17.180444 15.587556 61.610667 13.710222 116.451556 7.907556C442.936889 963.584 476.672 960.056889 512 960.056889z" p-id="9449"></path><path d="M702.805333 428.600889l-42.666667 0 0-351.004444c0.113778-16.042667-6.030222-19.626667-8.305778-21.048889-20.024889-11.832889-74.467556 1.592889-129.479111 32.085333-76.8 37.774222-158.435556 121.230222-158.435556 216.519111l0 123.448889-42.666667 0 0-123.448889c0-114.119111 91.079111-209.976889 181.361778-254.293333 26.339556-14.620444 119.466667-61.496889 170.951111-30.947556 13.425778 7.964444 29.468444 24.462222 29.297778 57.856L702.862222 428.600889z" p-id="9450"></path><path d="M754.972444 583.68" p-id="9451"></path><path d="M560.298667 583.68" p-id="9452"></path><path d="M750.535111 679.708444" p-id="9453"></path><path d="M555.861333 679.708444" p-id="9454"></path><path d="M258.389333 544.028444l496.64 0 0 42.666667-496.64 0 0-42.666667Z" p-id="9455"></path></svg>