<?xml version="1.0" standalone="no"?><!DOCTYPE svg PUBLIC "-//W3C//DTD SVG 1.1//EN" "http://www.w3.org/Graphics/SVG/1.1/DTD/svg11.dtd"><svg t="1633110209086" class="icon" viewBox="0 0 1024 1024" version="1.1" xmlns="http://www.w3.org/2000/svg" p-id="16930" xmlns:xlink="http://www.w3.org/1999/xlink" width="200" height="200"><defs><style type="text/css"></style></defs><path d="M396.994144 12.778428c127.784284-25.556857 249.179354-12.778428 364.18521 51.113714 12.778428 6.389214 19.167643 19.167643 19.167643 38.335285 0 12.778428-12.778428 25.556857-25.556857 25.556857-6.389214 0-12.778428 0-25.556857-6.389214-38.335285-25.556857-83.059785-38.335285-134.173498-51.113714-204.454855-44.724499-415.298924 70.281356-498.358709 255.568569C71.14422 396.131281 58.365791 472.801851 64.755005 543.083208c12.778428 185.287212 140.562713 338.628353 319.460711 396.131281 242.79014 70.281356 491.969494-63.892142 555.861636-306.682282 31.946071-121.39507 19.167643-230.011711-38.335285-338.628353-6.389214-12.778428-6.389214-25.556857 0-38.335286 12.778428-19.167643 44.724499-19.167643 51.113713 6.389215 19.167643 31.946071 31.946071 63.892142 44.7245 95.838213 19.167643 63.892142 25.556857 134.173498 19.167642 204.454854-19.167643 210.844069-166.119569 383.352852-364.185209 440.855781C371.437287 1086.166415 77.533434 913.657632 7.252078 626.142992 7.252078 587.807707 0.862863 549.472422 0.862863 511.137137 0.862863 274.736211 166.982433 63.892142 396.994144 12.778428z m274.736211 440.855781c19.167643-12.778428 44.724499-12.778428 63.892142 0 19.167643 12.778428 31.946071 31.946071 31.946071 57.502928s-12.778428 44.724499-31.946071 57.502927c-19.167643 12.778428-44.724499 12.778428-63.892142 0-19.167643-12.778428-31.946071-31.946071-31.946071-57.502927s12.778428-44.724499 31.946071-57.502928z m-191.676426 0c19.167643-12.778428 44.724499-12.778428 63.892142 0 19.167643 12.778428 31.946071 31.946071 31.946071 57.502928 0 38.335285-31.946071 63.892142-63.892142 63.892142-38.335285 0-63.892142-25.556857-63.892142-63.892142 0-25.556857 12.778428-44.724499 31.946071-57.502928z m-191.676426 0c19.167643-12.778428 44.724499-12.778428 63.892142 0 19.167643 12.778428 31.946071 31.946071 31.946071 57.502928s-12.778428 44.724499-31.946071 57.502927c-19.167643 12.778428-44.724499 12.778428-63.892142 0-19.167643-12.778428-31.946071-31.946071-31.946071-57.502927s12.778428-44.724499 31.946071-57.502928z" fill="#8686A0" p-id="16931"></path></svg>