<?xml version="1.0" standalone="no"?><!DOCTYPE svg PUBLIC "-//W3C//DTD SVG 1.1//EN" "http://www.w3.org/Graphics/SVG/1.1/DTD/svg11.dtd"><svg t="1633132528439" class="icon" viewBox="0 0 1204 1024" version="1.1" xmlns="http://www.w3.org/2000/svg" p-id="2869" xmlns:xlink="http://www.w3.org/1999/xlink" width="235.15625" height="200"><defs><style type="text/css"></style></defs><path d="M1048.316177 965.045614c-46.422444 0-86.228234-51.6099-115.129778-149.390812-26.373982-89.245428-40.904154-207.551199-40.904155-333.122057s14.556639-243.876629 40.904155-333.122057c28.888311-97.727978 68.694101-149.390812 115.129778-149.390812s86.228234 51.6099 115.129777 149.390812c26.360749 89.245428 40.877688 207.604133 40.877688 333.13529s-14.556639 243.876629-40.904154 333.122057c-28.875078 97.727978-68.680867 149.377578-115.103311 149.377579z m0-926.966744c-20.56456 0-52.0069 32.077538-78.619082 122.116964C944.328844 246.040302 930.301538 360.508414 930.301538 482.545978s13.974373 236.505677 39.342624 322.336912c26.612182 89.986493 58.054521 122.116964 78.619081 122.116964s52.0069-32.077538 78.619082-122.116964c25.368251-85.831234 39.342624-200.31258 39.342624-322.336912s-13.974373-236.505677-39.342624-322.336911c-26.559249-90.05266-58.014821-122.116964-78.566148-122.116964zM22.059924 1023.973533A19.029497 19.029497 0 0 1 6.246121 994.383857c0.436699-0.648432 44.344814-66.920837 87.630964-163.126985 39.699923-88.107363 86.889899-220.122842 86.889899-348.73736 0-125.570858 14.556639-243.876629 40.904155-333.122057 28.888311-97.727978 68.694101-149.390812 115.129778-149.390812a19.029497 19.029497 0 1 1 0 38.04576c-20.56456 0-52.0069 32.077538-78.619082 122.116964-25.368251 85.844468-39.342624 200.31258-39.342624 322.336911 0 60.079217-9.567682 125.557624-28.438379 194.635491-15.006571 54.904994-35.888731 112.231683-62.09068 170.378838C83.727138 946.46605 39.699923 1012.751688 37.913427 1015.51745a19.016263 19.016263 0 0 1-15.853503 8.456083z" fill="#040000" p-id="2870"></path><path d="M736.393879 1023.973533a19.029497 19.029497 0 0 1-15.813803-29.589676c0.436699-0.648432 44.344814-66.920837 87.630964-163.126985 39.699923-88.107363 86.889899-220.122842 86.889899-348.73736 0-125.570858 14.556639-243.876629 40.904154-333.122057 28.888311-97.727978 68.694101-149.390812 115.129778-149.390812a19.029497 19.029497 0 0 1 0 38.04576c-20.56456 0-52.0069 32.077538-78.619081 122.116964-25.368251 85.844468-39.342624 200.31258-39.342624 322.336911 0 60.079217-9.567682 125.557624-28.438379 194.635491-15.006571 54.904994-35.888731 112.231683-62.09068 170.378838-44.556547 98.905742-88.517596 165.191381-90.370259 167.957143a19.00303 19.00303 0 0 1-15.879969 8.495783z" fill="#040000" p-id="2871"></path><path d="M1048.316177 38.092103H336.77445a19.029497 19.029497 0 1 1 0-38.04576h711.541727a19.029497 19.029497 0 1 1 0 38.04576zM730.55799 1023.735334H19.029497a19.029497 19.029497 0 0 1 0-38.04576h711.528493a19.029497 19.029497 0 0 1 0 38.04576zM1048.316177 965.746979H785.118918a19.029497 19.029497 0 1 1 0-38.04576h263.197259a19.029497 19.029497 0 0 1 0 38.04576zM1048.316177 626.9743c-43.312616 0-63.043478-74.860822-63.043479-144.428322s19.730862-144.428321 63.043479-144.428321 63.043478 74.860822 63.043478 144.428321-19.730862 144.428321-63.043478 144.428322z m0-250.374184c-2.792228 2.143796-9.157449 10.044081-15.006571 29.179444-6.431388 21.054193-9.977914 48.314807-9.977915 76.753185s3.546526 55.712226 9.977915 76.753185c5.849122 19.135363 12.214343 27.035648 15.006571 29.179444 2.792228-2.143796 9.157449-10.044081 15.006571-29.179444 6.444621-21.054193 9.977914-48.314807 9.977914-76.753185s-3.546526-55.712226-9.977914-76.753185c-5.862355-19.148596-12.227576-27.048881-15.006571-29.192677z" fill="#040000" p-id="2872"></path></svg>