<?xml version="1.0" standalone="no"?><!DOCTYPE svg PUBLIC "-//W3C//DTD SVG 1.1//EN" "http://www.w3.org/Graphics/SVG/1.1/DTD/svg11.dtd"><svg t="1633108627134" class="icon" viewBox="0 0 1024 1024" version="1.1" xmlns="http://www.w3.org/2000/svg" p-id="5942" xmlns:xlink="http://www.w3.org/1999/xlink" width="200" height="200"><defs><style type="text/css"></style></defs><path d="M866.685092 980.084814c-4.027733 0-8.083096-1.295506-11.501962-3.968381-27.697829-21.654182-105.107873-26.498514-123.876332-26.5374L192.504362 949.579033c-62.446237 0-113.25032-50.805106-113.25032-113.255437l0-31.100322c-26.600845-7.7935-46.085618-32.41834-46.085618-61.505819l0-99.261725c0-29.086455 19.484773-53.708226 46.085618-61.501726L79.254042 377.73404c-26.600845-7.7935-46.085618-32.416294-46.085618-61.502749l0-99.265818c0-29.086455 19.484773-53.708226 46.085618-61.501726l0-9.41237c0-62.447261 50.804083-113.251344 113.25032-113.251344l690.277336 0c62.446237 0 113.251344 50.804083 113.251344 113.251344l0 690.272219c0 0.208754-0.00307 0.417509-0.010233 0.626263l-0.667196 19.900236c-0.152473 40.178071-27.970028 69.304436-66.254983 69.304436-18.9854 0-36.495192-7.186679-49.305963-20.237927-12.630668-12.867052-19.606547-30.330796-19.656689-49.191352l-0.448208-21.913079c-0.016373-0.777713-0.017396-1.216711 0.062422-1.969864 0.288572-4.673439 3.15383-83.785242-126.134769-107.939361-4.064572-0.565888-31.122835-4.470825-59.491952-11.939937-45.546336-11.993149-69.26555-26.064632-76.088956-45.314045-3.76679-7.716752-5.036713-21.275559-2.584871-49.073672 5.76633-65.36573 39.522132-103.657848 64.169485-131.617643 6.804986-7.720845 12.68388-14.388708 16.797571-20.332071 15.84078-22.87908 18.508539-49.863664 18.794042-53.428863-0.01228-0.592494-0.044002-0.99056-0.072655-1.24127-0.426719-0.523933-1.248434-1.39579-1.87879-2.065032-1.02126-1.083681-2.179642-2.311649-3.408633-3.780093-6.938016-8.299013-9.528004-18.727527-7.704472-31.004131 1.845021-12.44545 2.945075-22.756283 3.462868-32.446993 1.523703-28.431539 0.723477-49.607838-2.595105-68.666916-0.057305-0.325411-0.105401-0.653893-0.144286-0.981351-0.399089-3.325745-1.152243-7.024997-2.372024-11.642155-3.761674-14.241352-9.55768-26.193569-17.232476-35.537378-1.526773-1.530866-12.146645-11.680017-35.470863-22.722514-23.49511-11.123338-64.954361-25.412786-129.039935-30.326702-17.008372-1.304715-34.593889-0.564865-51.14689 0.306992l-0.939395 0.048095c-0.197498 0.010233-0.411369 0.021489-0.638543 0.032746 1.353834 4.660136 2.125407 10.621918 0.101307 17.35118-1.345648 4.499477-3.460822 8.148587-4.933359 10.500145-5.588275 8.91095-13.080923 15.858176-19.705807 21.485337-1.305739 1.184989-25.64303 23.62507-26.470885 48.891524-0.027629 0.870834-0.11768 1.737574-0.267083 2.595105-4.635577 26.618241-4.323469 70.456678 0.698918 97.725742 0.107447 0.586354 0.222057 1.172709 0.334621 1.75497 1.605567 8.271384 4.593622 23.667026-9.773598 36.916794l-0.335644 0.309038c-1.067308 0.984421-2.331092 2.149966-3.086291 2.930749 0.441045 4.926196 3.426029 30.849612 18.756179 52.992935 4.114714 5.943362 9.992585 12.611226 16.797571 20.331048 24.64633 27.959795 58.400085 66.252937 64.166415 131.618667 2.454912 27.806299 1.183965 41.367153-2.587941 49.083905-6.826476 19.24532-30.544667 33.314757-76.082816 45.304835-28.639271 7.540743-55.946196 11.44875-59.601446 11.95631-55.151088 9.644661-94.233198 31.833009-113.035426 64.181765-13.273305 22.835078-12.088316 42.742477-12.072967 42.936905 0.830925 10.292414-6.839779 19.308765-17.132192 20.140713-10.271948 0.816598-19.309788-6.839779-20.140713-17.132192-0.25685-3.186576-1.964748-32.079626 17.017582-64.736397 11.116175-19.123546 27.066449-35.528168 47.409776-48.756447 24.463158-15.906272 55.375192-27.188222 91.876524-33.532721 0.232291-0.039909 0.465604-0.075725 0.698918-0.107447 0.249687-0.033769 25.656333-3.514033 52.370765-10.310833 44.571125-11.342326 52.67878-21.488407 53.516868-22.714328 0.295735-1.059122 0.683569-2.085498 1.156336-3.067872 0.360204-2.384303 1.090844-10.334369-0.641613-29.957289-4.686742-53.138244-32.56672-84.765569-54.968939-110.179378-7.267521-8.243755-14.130835-16.030092-19.490913-23.772426-23.187095-33.491789-25.344225-71.630411-25.425066-73.237001-0.016373-0.311085-0.022513-0.623193-0.022513-0.935302 0-15.996322 7.872295-23.778566 14.508435-29.91124-0.149403-0.978281-0.38988-2.217505-0.585331-3.225461-0.135076-0.698918-0.271176-1.400906-0.401136-2.105964-5.710049-31.008224-6.112208-78.853929-0.973164-109.680005 2.103918-41.560558 37.684274-73.155137 39.214117-74.493621 0.072655-0.063445 0.146333-0.12689 0.220011-0.189312 4.365424-3.701299 9.198499-8.080026 12.142551-12.604062-0.024559-0.057305-0.049119-0.112564-0.072655-0.167822-1.984191-4.577249-5.306866-12.236696-3.422959-22.037922 0.942465-4.909823 4.962012-16.824177 21.86703-21.333888 6.120394-1.632173 12.472056-1.956561 17.10968-2.192945l0.88209-0.045025c17.772782-0.935302 36.738739-1.727341 55.969733-0.249687 57.637722 4.418636 106.527199 16.302291 145.30641 35.320437 30.022781 14.72333 42.906206 28.600385 44.276413 30.135344 0.138146 0.154519 0.274246 0.311085 0.406253 0.470721 11.390421 13.640672 19.817348 30.595832 25.047466 50.39476 1.616824 6.123464 2.664689 11.298324 3.28379 16.231683 4.861728 28.29544 4.051269 57.249889 3.013637 76.606749-0.581238 10.882861-1.793856 22.301935-3.814886 35.935444-0.147356 0.991584-0.180102 1.63422-0.180102 2.012843 0.435928 0.490164 0.945535 1.031493 1.51347 1.633197 3.123131 3.312442 7.841595 8.317433 10.330276 16.288988 1.236154 3.948939 1.812275 8.149611 1.812275 13.207813 0 0.312108-0.008186 0.623193-0.022513 0.934279-0.080841 1.606591-2.236947 39.746236-25.426089 73.239048-5.359055 7.742335-12.223393 15.529695-19.491936 23.77345-22.403243 25.412786-50.284243 57.042157-54.970986 110.175285-1.730411 19.632129-0.998747 27.582195-0.639566 29.965475 0.471744 0.979304 0.858554 2.003634 1.154289 3.060709 0.838088 1.226944 8.980535 11.418051 53.819766 22.790052 26.705222 6.774287 51.822272 10.202363 52.071959 10.236132 0.303922 0.040932 0.606821 0.090051 0.908696 0.146333 36.818557 6.828522 67.956741 18.443048 92.549859 34.522258 20.464077 13.379729 36.476773 29.839609 47.596018 48.923246 17.545608 30.113855 17.300015 56.847729 16.931624 63.364143l0.435928 21.269419c0.00307 0.12689 0.004093 0.254803 0.004093 0.382717 0 18.682501 13.277398 32.242332 31.57002 32.242332 21.303188 0 28.862351-17.368576 28.862351-32.242332 0-0.208754 0.00307-0.417509 0.010233-0.626263l0.667196-19.882839L958.642456 146.051377c0-41.827641-34.030048-75.858712-75.858712-75.858712L192.504362 70.192665c-41.828664 0-75.857688 34.030048-75.857688 75.858712l0 25.489534c0 9.816576-7.591909 17.962094-17.384949 18.650779l-0.710175 0.050142c-0.436952 0.030699-0.873903 0.046049-1.311879 0.046049-14.710027 0-26.677593 11.967566-26.677593 26.677593l0 99.265818c0 14.710027 11.967566 26.677593 26.677593 26.677593 8.260128 0 15.540951 5.420453 17.909905 13.332656l0.711198 2.373047c0.520863 1.739621 0.785899 3.546779 0.785899 5.364171l0 233.682203c0 2.902096-0.675382 5.765307-1.973958 8.361435l-0.710175 1.421372c-3.167133 6.333242-9.640568 10.335393-16.72287 10.335393-14.710027 0-26.677593 11.967566-26.677593 26.677593l0 99.261725c0 14.713097 11.967566 26.682709 26.677593 26.682709 7.072069 0 13.539364 3.989871 16.71059 10.310833l0.710175 1.416256c1.305739 2.602268 1.985214 5.474688 1.985214 8.384971l0 45.811372c0 41.830711 34.029024 75.862805 75.857688 75.862805l538.823925 0c3.27765 0.001023 103.31811 0.409322 146.885372 34.472116 8.135284 6.359848 9.574053 18.10945 3.214205 26.243711C877.740892 977.618647 872.240621 980.084814 866.685092 980.084814zM626.950032 645.37466c0.627287 0.505513 1.218758 1.049912 1.771343 1.62808C628.204605 646.461411 627.617228 645.912919 626.950032 645.37466zM450.819592 645.36852c-0.661056 0.533143-1.24434 1.076518-1.75804 1.611707C449.610044 646.409223 450.197422 645.86994 450.819592 645.36852z" p-id="5943"></path></svg>