<?xml version="1.0" standalone="no"?><!DOCTYPE svg PUBLIC "-//W3C//DTD SVG 1.1//EN" "http://www.w3.org/Graphics/SVG/1.1/DTD/svg11.dtd"><svg t="1631963187243" class="icon" viewBox="0 0 1024 1024" version="1.1" xmlns="http://www.w3.org/2000/svg" p-id="3894" xmlns:xlink="http://www.w3.org/1999/xlink" width="200" height="200"><defs><style type="text/css"></style></defs><path d="M204.803994 964.917563V322.977161a43.098436 43.098436 0 0 0-40.958362-45.289708H40.970547a44.388624 44.388624 0 0 0-40.958361 45.289708V964.917563z m260.648774 0V47.265949c0-25.598976-18.615575-47.265949-40.958362-47.265949h-122.875085c-22.332547 0-40.958362 21.666973-40.958361 47.265949v917.620896z m260.638534 0V559.24547c0-25.598976-18.615575-47.25571-40.958361-47.25571h-122.875085c-22.342786 0-40.958362 21.656734-40.958362 47.25571v405.651614z m260.638535 0V322.977161a43.098436 43.098436 0 0 0-40.958362-45.289708h-122.875085a44.388624 44.388624 0 0 0-40.958361 45.289708V964.917563z m37.231151 59.072197" fill="#2E2A2A" p-id="3895"></path></svg>